<svg xmlns="http://www.w3.org/2000/svg" viewBox="0 0 405 460" width="405" height="460">
<title>Hand-drawn garlic bulb illustration</title>
<rect width="100%" height="100%" fill="#ffffff"/>
<path d="M 107 410 L 99 414 L 98 416 L 94 415 L 93 417 L 84 417 L 85 418 L 86 416 L 88 416 L 88 419 L 95 421 L 99 420 L 98 418 L 100 414 L 104 414 L 106 418 L 107 417 L 105 413 Z M 271 407 L 283 409 L 280 409 L 277 405 Z M 250 399 L 252 399 L 258 407 L 270 414 L 284 418 L 304 417 L 295 416 L 290 418 L 288 416 L 289 413 L 296 413 L 281 413 L 272 411 L 255 403 L 251 398 Z M 333 390 L 331 390 L 316 405 L 307 410 L 298 412 L 306 410 L 310 411 L 311 414 L 306 416 L 314 413 L 324 405 L 332 393 L 330 396 L 328 395 L 328 393 Z M 324 400 L 325 403 L 320 407 L 318 404 L 322 400 Z M 249 389 L 253 396 L 262 403 L 269 406 L 262 403 L 261 401 L 266 395 L 272 396 L 260 394 Z M 259 390 L 272 393 L 263 388 Z M 36 386 L 51 394 L 65 398 L 67 397 L 49 387 L 41 385 Z M 250 377 L 248 380 L 249 385 L 255 388 L 249 385 L 249 383 L 253 380 Z M 336 376 L 326 391 L 319 391 L 317 393 L 320 397 L 319 399 L 312 404 L 302 403 L 304 406 L 301 408 L 306 407 L 319 399 L 324 394 L 323 392 L 326 392 L 332 383 L 334 384 L 333 381 Z M 252 369 L 245 375 L 248 376 L 248 373 Z M 54 369 L 54 378 L 59 381 L 55 377 L 56 375 L 54 374 Z M 138 366 L 135 370 L 132 371 L 136 373 L 136 368 Z M 306 366 L 309 367 L 310 365 L 325 365 L 308 364 Z M 270 361 L 267 360 L 266 362 L 264 361 L 263 363 L 261 362 L 257 366 L 254 366 L 261 368 L 265 366 L 268 361 Z M 347 356 L 328 365 L 334 367 L 338 361 L 344 362 L 347 359 Z M 241 334 L 236 336 L 236 333 L 221 341 L 224 342 L 225 340 L 231 340 L 232 338 L 234 339 L 236 336 L 239 337 L 239 335 Z M 230 327 L 213 335 L 221 334 L 228 330 Z M 229 302 L 226 306 L 227 307 L 231 304 Z M 260 297 L 248 316 L 236 329 L 249 318 L 254 311 Z M 249 313 L 251 312 L 252 314 L 250 315 Z M 267 283 L 264 283 L 266 284 L 266 288 L 258 310 L 251 320 L 238 332 L 250 322 L 252 326 L 243 333 L 245 334 L 246 331 L 248 332 L 251 327 L 254 327 L 258 323 L 256 321 L 261 315 L 266 300 Z M 256 312 L 259 311 L 261 314 L 257 315 Z M 262 300 L 264 299 L 265 301 L 263 302 Z M 263 297 L 265 296 L 266 298 L 264 299 Z M 264 294 L 266 293 L 267 295 L 265 296 Z M 257 283 L 255 284 L 251 297 Z M 258 277 L 256 278 L 256 281 L 258 280 Z M 238 270 L 236 285 L 239 284 L 240 289 L 242 274 L 240 276 L 238 274 Z M 258 251 L 258 255 L 256 256 L 255 254 L 257 260 L 257 275 L 259 273 Z M 249 230 L 250 232 L 245 235 L 249 240 L 253 250 L 254 248 L 257 249 L 255 241 Z M 224 225 L 229 233 L 232 233 Z M 188 223 L 192 242 L 191 229 Z M 189 213 L 190 218 L 191 216 L 195 217 L 192 213 Z M 207 201 L 228 215 L 242 230 L 244 229 L 240 224 L 241 222 L 246 227 L 242 222 L 241 217 L 239 217 L 237 214 L 232 212 L 233 215 L 231 216 L 228 213 L 229 211 L 226 212 L 224 210 L 224 207 L 223 209 L 220 207 L 221 204 L 212 200 L 212 203 L 209 203 Z M 200 192 L 199 194 L 204 199 L 202 196 L 205 196 Z M 163 187 L 163 191 L 166 194 L 166 199 L 166 191 Z M 173 186 L 173 190 L 169 192 L 174 201 L 175 197 Z M 111 181 L 110 184 L 108 183 L 107 186 L 100 189 L 96 193 L 91 193 L 91 197 L 86 197 L 87 199 L 85 201 L 81 201 L 80 205 L 68 217 L 66 216 L 66 220 L 53 237 L 42 260 L 38 282 L 35 284 L 35 288 L 36 286 L 38 287 L 38 296 L 36 297 L 38 298 L 37 301 L 39 302 L 38 306 L 41 308 L 39 310 L 41 311 L 40 313 L 43 315 L 44 321 L 49 329 L 63 343 L 56 332 L 58 330 L 62 334 L 62 336 L 69 342 L 66 339 L 61 327 L 59 326 L 60 324 L 57 312 L 57 295 L 59 287 L 58 284 L 60 282 L 59 280 L 61 278 L 68 256 L 77 243 L 86 225 L 106 197 L 117 185 L 114 187 L 112 185 L 112 183 L 114 182 Z M 38 282 L 40 281 L 41 284 L 39 285 Z M 108 192 L 109 194 L 104 197 L 103 195 Z M 155 118 L 155 120 L 151 124 L 151 136 L 152 134 L 154 134 L 155 136 L 156 130 L 155 132 L 152 131 L 153 127 L 155 125 L 157 126 L 158 120 L 156 120 Z M 166 87 L 164 89 L 160 89 L 161 91 L 158 95 L 160 96 L 159 106 L 157 109 L 155 109 L 157 110 L 157 112 L 155 114 L 152 114 L 155 114 L 156 116 L 158 112 L 160 114 L 165 99 L 164 96 Z M 183 86 L 179 88 L 172 103 L 168 117 L 168 124 L 163 138 L 161 137 L 161 127 L 164 111 L 164 114 L 162 116 L 163 119 L 161 120 L 162 123 L 160 125 L 161 129 L 159 130 L 160 134 L 158 135 L 159 140 L 157 141 L 159 146 L 159 153 L 156 157 L 154 156 L 154 158 L 156 159 L 155 161 L 153 161 L 155 162 L 154 167 L 151 168 L 152 170 L 150 171 L 143 189 L 130 207 L 129 203 L 133 199 L 144 178 L 149 163 L 153 143 L 149 144 L 149 146 L 146 147 L 145 149 L 147 151 L 144 152 L 146 153 L 145 157 L 137 172 L 134 175 L 128 174 L 129 176 L 126 177 L 124 182 L 91 223 L 92 224 L 118 197 L 120 198 L 86 236 L 69 265 L 61 291 L 61 319 L 70 339 L 72 339 L 78 345 L 78 347 L 82 347 L 83 350 L 84 348 L 92 349 L 94 351 L 90 348 L 82 326 L 82 292 L 89 267 L 102 243 L 104 245 L 94 264 L 94 268 L 92 269 L 85 299 L 86 323 L 93 343 L 104 353 L 113 357 L 123 358 L 123 356 L 120 356 L 120 350 L 123 349 L 124 352 L 123 345 L 129 304 L 131 303 L 132 308 L 128 328 L 127 355 L 129 358 L 134 358 L 150 350 L 155 337 L 158 322 L 159 278 L 161 279 L 163 316 L 159 339 L 151 354 L 152 357 L 161 358 L 168 352 L 172 346 L 174 348 L 170 354 L 174 351 L 175 353 L 172 357 L 178 356 L 191 345 L 195 336 L 198 322 L 199 301 L 195 279 L 188 261 L 187 264 L 193 291 L 193 315 L 190 326 L 191 328 L 180 349 L 177 349 L 177 346 L 179 345 L 185 334 L 185 329 L 187 328 L 186 326 L 189 319 L 189 283 L 181 252 L 183 251 L 179 249 L 172 238 L 169 236 L 166 229 L 162 271 L 159 271 L 161 246 L 159 170 L 154 167 L 157 160 L 160 161 L 160 164 L 160 154 L 162 153 L 164 156 L 162 175 L 163 173 L 165 174 L 168 189 L 168 187 L 172 184 L 170 164 L 175 163 L 178 174 L 182 178 L 184 178 L 185 181 L 190 182 L 195 190 L 196 188 L 181 170 L 181 166 L 179 165 L 179 161 L 177 160 L 177 158 L 180 157 L 175 153 L 174 133 L 180 127 L 178 126 L 177 129 L 175 128 L 180 110 L 176 118 L 172 140 L 174 142 L 172 149 L 175 162 L 171 163 L 169 161 L 171 159 L 167 155 L 168 135 L 170 134 L 169 128 L 171 127 L 170 124 L 172 123 L 171 121 L 173 119 L 176 107 L 181 96 L 185 92 Z M 131 298 L 133 299 L 132 303 L 130 302 Z M 132 292 L 134 293 L 133 298 L 131 297 Z M 133 287 L 135 288 L 134 292 L 132 291 Z M 179 253 L 182 256 L 181 259 L 177 257 Z M 108 235 L 109 237 L 104 243 L 103 241 Z M 108 233 L 110 232 L 111 234 L 109 235 Z M 123 213 L 125 212 L 126 214 L 124 215 Z M 125 210 L 127 209 L 128 211 L 126 212 Z M 127 207 L 129 206 L 130 208 L 128 209 Z M 129 179 L 131 178 L 132 180 L 130 181 Z M 146 181 L 149 177 L 152 177 L 154 182 L 147 183 Z M 169 162 L 170 172 L 166 174 L 165 165 Z M 158 84 L 154 97 L 159 85 Z M 178 83 L 176 86 L 174 86 L 173 92 Z M 163 77 L 168 79 L 168 77 Z" fill="#E2D2EA" fill-rule="evenodd"/>
<path d="M 98 414 L 98 419 L 104 417 L 103 415 Z M 311 413 L 308 412 L 307 409 L 305 412 L 301 413 L 296 412 L 295 414 L 286 414 L 288 414 L 290 417 L 295 415 L 299 417 Z M 323 400 L 320 401 L 320 406 L 324 403 Z M 332 390 L 330 390 L 330 392 L 326 395 L 329 396 Z M 41 389 L 41 391 L 43 392 L 46 390 Z M 55 378 L 55 382 L 63 390 L 67 391 Z M 346 358 L 343 358 L 345 360 L 340 362 L 339 360 L 334 368 L 327 365 L 323 366 L 322 364 L 320 366 L 312 366 L 311 364 L 310 366 L 307 366 L 303 363 L 295 363 L 294 361 L 290 362 L 289 360 L 287 362 L 283 361 L 282 359 L 275 361 L 273 359 L 272 361 L 266 363 L 265 367 L 261 369 L 256 367 L 249 373 L 247 373 L 249 378 L 254 379 L 251 383 L 248 383 L 248 385 L 251 385 L 258 390 L 263 390 L 264 388 L 266 388 L 266 391 L 269 392 L 269 395 L 260 402 L 263 402 L 270 407 L 277 404 L 280 406 L 279 408 L 282 408 L 283 410 L 295 410 L 296 408 L 300 409 L 301 407 L 305 406 L 303 405 L 305 402 L 310 402 L 311 405 L 309 406 L 311 407 L 311 404 L 318 400 L 327 391 L 335 377 L 338 377 L 339 375 L 337 374 L 337 371 L 339 368 L 341 368 Z M 270 392 L 272 393 L 271 397 L 269 396 Z M 316 393 L 319 390 L 323 391 L 323 394 L 321 396 L 318 396 Z M 185 339 L 185 343 L 183 345 L 187 343 Z M 250 320 L 250 322 L 243 329 L 241 329 L 230 338 L 242 333 L 252 325 L 250 323 Z M 257 310 L 257 313 L 254 315 L 254 317 L 257 314 L 259 316 L 260 314 Z M 253 309 L 248 317 L 250 317 Z M 266 292 L 264 298 L 262 299 L 262 303 L 264 303 Z M 240 283 L 239 285 L 237 284 L 235 286 L 236 288 L 234 289 L 235 291 L 232 294 L 233 296 L 229 301 L 230 303 L 227 304 L 231 305 L 237 298 L 239 293 L 238 291 L 240 290 L 239 287 L 241 286 Z M 180 253 L 178 257 L 182 260 L 184 267 L 185 266 L 183 265 L 184 262 L 182 261 L 182 259 L 185 258 L 189 268 L 187 260 L 185 258 L 182 258 L 182 255 Z M 256 248 L 254 249 L 254 251 L 257 255 Z M 98 248 L 96 249 L 97 254 L 95 257 L 97 257 L 99 253 Z M 229 231 L 228 232 L 235 244 L 235 250 L 237 251 L 236 254 L 239 270 L 237 276 L 239 274 L 242 281 L 241 275 L 244 274 L 246 277 L 246 262 L 244 254 L 242 253 L 243 251 L 241 250 L 242 248 L 239 242 Z M 242 226 L 242 229 L 246 235 L 247 233 L 251 234 L 247 228 Z M 226 209 L 225 212 L 236 222 L 231 216 L 230 212 L 229 214 L 226 213 Z M 192 204 L 192 209 L 194 210 L 195 214 L 193 216 L 191 216 L 190 214 L 189 216 L 191 217 L 190 219 L 194 225 L 193 227 L 195 228 L 195 231 L 192 233 L 196 233 L 191 238 L 193 239 L 192 244 L 194 246 L 193 254 L 195 255 L 197 261 L 200 263 L 199 265 L 204 272 L 203 274 L 205 275 L 204 277 L 208 286 L 208 297 L 210 298 L 210 316 L 208 317 L 208 320 L 220 310 L 226 300 L 227 295 L 230 292 L 229 290 L 231 289 L 231 284 L 233 283 L 232 279 L 234 278 L 234 260 L 232 255 L 233 253 L 231 252 L 231 247 L 228 243 L 229 241 L 220 226 L 212 217 L 204 213 L 202 210 L 196 208 Z M 194 215 L 196 214 L 197 217 L 195 218 Z M 108 193 L 103 195 L 107 197 Z M 195 188 L 196 191 L 206 200 L 211 203 L 213 200 L 208 199 L 206 196 L 202 196 L 202 193 L 200 194 L 199 191 Z M 171 182 L 171 186 L 169 187 L 170 192 L 172 190 Z M 119 181 L 113 183 L 113 188 L 118 184 Z M 182 177 L 183 181 L 185 182 Z M 152 178 L 148 176 L 144 184 L 147 182 L 153 182 Z M 169 163 L 166 165 L 166 173 L 169 172 Z M 159 159 L 155 165 L 158 170 L 162 168 L 162 164 L 159 164 Z M 159 111 L 156 117 L 156 125 L 149 141 L 150 145 L 154 143 L 153 139 L 155 138 L 154 134 L 156 133 L 156 124 L 158 123 L 157 120 L 159 119 L 158 116 L 160 115 Z M 184 97 L 182 97 L 177 104 L 179 101 L 184 100 Z" fill="#D3BEDE" fill-rule="evenodd"/>
<path d="M 105 414 L 104 415 L 106 417 L 107 415 Z" fill="#C1A994" fill-rule="evenodd"/>
<path d="M 118 404 L 116 403 L 112 406 L 107 405 L 104 408 L 91 413 L 84 413 L 79 411 L 78 412 L 66 411 L 66 413 L 71 417 L 96 423 L 107 420 L 115 411 Z M 102 418 L 103 417 L 105 418 L 104 419 Z M 112 409 L 113 411 L 108 415 L 107 414 Z M 112 409 L 113 408 L 114 409 L 113 410 Z M 113 408 L 114 407 L 115 408 L 114 409 Z M 111 408 L 105 412 L 108 415 L 105 418 L 104 416 L 95 421 L 89 421 L 74 415 L 75 414 L 92 414 L 100 412 L 108 407 Z M 18 385 L 18 388 L 20 390 L 38 394 L 53 400 L 61 400 L 62 401 L 76 400 L 80 397 L 85 397 L 86 396 L 86 394 L 84 392 L 75 389 L 67 383 L 58 370 L 52 364 L 50 365 L 51 370 L 45 378 L 40 377 L 37 382 L 29 381 L 26 385 L 22 384 Z M 22 387 L 32 384 L 44 392 L 42 393 L 33 390 L 28 390 Z M 34 385 L 39 384 L 42 379 L 46 380 L 51 375 L 53 367 L 66 384 L 74 390 L 82 393 L 83 395 L 81 396 L 68 392 L 71 395 L 76 397 L 73 399 L 59 397 L 55 395 L 52 395 Z M 120 344 L 120 354 L 121 356 Z M 370 344 L 368 342 L 364 345 L 360 345 L 359 342 L 356 341 L 337 355 L 322 360 L 307 360 L 283 354 L 273 354 L 258 358 L 251 362 L 241 371 L 238 370 L 235 372 L 234 376 L 236 380 L 233 385 L 233 389 L 235 390 L 235 395 L 233 399 L 236 403 L 239 403 L 253 413 L 273 422 L 292 425 L 293 424 L 306 423 L 315 420 L 327 413 L 336 404 L 344 388 L 348 373 L 348 369 L 352 360 L 359 352 L 368 350 L 370 347 Z M 244 402 L 245 401 L 246 402 L 245 403 Z M 241 400 L 243 399 L 245 401 L 243 402 Z M 249 397 L 250 396 L 251 397 L 250 398 Z M 248 396 L 249 395 L 250 396 L 249 397 Z M 244 380 L 246 384 L 245 387 L 243 388 L 242 387 Z M 240 379 L 241 380 L 240 382 L 241 385 L 240 395 L 242 393 L 243 395 L 238 398 L 237 397 L 238 396 L 237 382 Z M 243 376 L 244 377 L 243 380 L 242 379 Z M 237 377 L 238 376 L 239 377 L 238 378 Z M 241 376 L 242 375 L 243 376 L 242 377 Z M 239 374 L 241 373 L 242 375 L 241 376 Z M 349 360 L 341 387 L 336 398 L 325 410 L 311 417 L 296 421 L 276 420 L 267 417 L 258 412 L 244 398 L 246 392 L 249 395 L 248 396 L 250 398 L 251 397 L 258 403 L 272 409 L 282 411 L 294 411 L 303 409 L 313 404 L 324 395 L 334 381 L 341 367 L 348 359 Z M 348 359 L 349 358 L 350 359 L 349 360 Z M 348 355 L 346 360 L 343 362 L 342 365 L 339 366 L 340 365 L 341 367 L 339 369 L 338 368 L 339 370 L 327 390 L 317 400 L 308 406 L 294 410 L 282 410 L 272 408 L 259 402 L 247 390 L 248 387 L 259 392 L 270 394 L 270 393 L 257 390 L 247 385 L 245 379 L 247 378 L 247 376 L 243 374 L 253 364 L 260 360 L 272 357 L 281 357 L 303 362 L 319 363 L 320 362 L 332 361 L 346 354 Z M 346 352 L 347 351 L 348 352 L 347 353 Z M 347 351 L 349 349 L 351 350 L 349 352 Z M 365 348 L 356 351 L 352 355 L 351 354 L 358 347 L 364 347 Z M 364 347 L 365 346 L 366 347 L 365 348 Z M 356 344 L 357 346 L 351 350 L 350 349 Z M 248 288 L 245 295 L 235 309 L 225 318 L 241 302 L 245 296 Z M 220 205 L 232 214 L 242 225 L 230 212 Z M 145 147 L 136 167 L 130 174 L 135 170 L 144 153 Z M 170 64 L 158 85 L 154 98 L 152 115 L 155 97 L 158 90 L 158 87 Z M 176 53 L 170 53 L 164 59 L 147 84 L 145 111 L 144 112 L 144 119 L 141 129 L 141 133 L 130 156 L 116 171 L 100 177 L 91 182 L 70 202 L 40 241 L 34 255 L 30 270 L 30 275 L 29 276 L 30 297 L 34 310 L 44 330 L 58 345 L 64 349 L 81 356 L 92 357 L 99 360 L 83 368 L 82 372 L 83 373 L 90 373 L 96 371 L 97 372 L 95 375 L 97 377 L 102 376 L 104 377 L 101 382 L 102 386 L 104 386 L 112 380 L 114 382 L 119 381 L 120 382 L 118 387 L 121 389 L 127 382 L 129 385 L 131 385 L 134 381 L 140 392 L 142 391 L 142 381 L 143 380 L 148 383 L 151 388 L 153 388 L 155 384 L 162 387 L 169 381 L 173 383 L 181 384 L 182 381 L 177 376 L 178 374 L 182 376 L 192 376 L 193 373 L 185 371 L 176 364 L 181 362 L 184 359 L 189 359 L 202 355 L 207 351 L 217 346 L 237 341 L 253 332 L 267 316 L 276 295 L 277 277 L 274 263 L 265 241 L 255 225 L 239 210 L 216 196 L 199 179 L 191 168 L 187 160 L 184 148 L 184 130 L 186 121 L 191 111 L 201 97 L 201 92 L 200 91 L 198 91 L 195 94 L 194 92 L 203 73 L 203 68 L 200 66 L 193 69 L 191 66 L 189 58 L 180 59 Z M 148 381 L 149 380 L 151 383 L 150 384 Z M 158 378 L 160 377 L 164 379 L 165 382 L 164 383 Z M 130 378 L 132 377 L 133 379 L 131 380 Z M 105 379 L 107 377 L 108 378 L 107 380 Z M 107 377 L 108 376 L 109 377 L 108 378 Z M 174 375 L 175 374 L 176 375 L 175 376 Z M 117 377 L 119 374 L 121 375 L 120 378 Z M 117 374 L 110 380 L 108 379 L 114 373 Z M 109 373 L 110 372 L 111 373 L 110 374 Z M 96 371 L 97 370 L 98 371 L 97 372 Z M 112 369 L 113 371 L 111 373 L 110 371 Z M 106 369 L 107 372 L 105 374 L 103 374 L 102 373 Z M 139 367 L 142 370 L 140 371 L 140 385 L 139 386 L 135 378 L 135 376 L 138 375 L 138 368 Z M 107 368 L 108 367 L 109 368 L 108 369 Z M 155 367 L 159 366 L 164 372 L 166 372 L 176 380 L 174 381 L 163 377 Z M 161 367 L 171 365 L 173 368 L 177 368 L 182 372 L 177 373 L 169 368 L 165 368 L 164 370 Z M 88 369 L 96 365 L 103 365 L 104 366 L 99 369 L 94 369 L 93 370 Z M 160 383 L 158 384 L 156 382 L 152 381 L 146 376 L 145 374 L 146 366 L 140 365 L 138 367 L 136 367 L 136 375 L 135 376 L 134 372 L 131 372 L 130 369 L 128 369 L 127 370 L 127 375 L 122 384 L 121 382 L 123 377 L 123 371 L 120 370 L 119 368 L 115 367 L 109 368 L 108 367 L 111 363 L 118 366 L 131 366 L 136 365 L 140 362 L 150 365 L 155 365 L 156 366 L 155 367 L 151 367 L 151 370 L 148 371 L 148 374 L 151 377 L 150 374 L 151 372 Z M 102 362 L 104 360 L 109 363 L 106 365 Z M 167 354 L 168 353 L 169 354 L 168 355 Z M 168 353 L 169 352 L 170 353 L 169 354 Z M 202 350 L 198 353 L 195 354 L 193 353 L 199 349 Z M 201 349 L 202 348 L 205 349 L 204 350 Z M 74 349 L 75 348 L 76 349 L 75 350 Z M 195 348 L 196 347 L 199 348 L 198 349 Z M 72 348 L 73 347 L 75 348 L 74 349 Z M 69 347 L 70 346 L 73 347 L 72 348 Z M 67 346 L 68 345 L 70 346 L 69 347 Z M 66 345 L 67 344 L 68 345 L 67 346 Z M 67 341 L 68 340 L 69 341 L 68 342 Z M 203 331 L 204 330 L 205 331 L 204 332 Z M 221 310 L 222 309 L 223 310 L 222 311 Z M 242 283 L 243 282 L 244 283 L 243 284 Z M 85 229 L 86 228 L 87 229 L 86 230 Z M 224 224 L 237 238 L 242 247 L 246 261 L 246 276 L 244 280 L 243 279 L 243 268 L 243 276 L 241 282 L 241 287 L 238 295 L 235 300 L 223 310 L 222 308 L 227 301 L 232 290 L 236 272 L 235 270 L 236 269 L 235 268 L 236 263 L 235 262 L 235 255 L 231 240 L 223 226 Z M 222 224 L 223 223 L 224 224 L 223 225 Z M 221 223 L 222 222 L 223 223 L 222 224 Z M 184 215 L 185 214 L 186 215 L 185 216 Z M 192 203 L 197 205 L 204 211 L 211 215 L 220 225 L 229 240 L 233 252 L 233 258 L 234 259 L 234 277 L 230 291 L 220 309 L 211 318 L 207 320 L 206 319 L 207 317 L 206 316 L 207 313 L 207 297 L 206 296 L 205 285 L 201 274 L 201 271 L 197 264 L 197 262 L 191 253 L 190 238 L 188 234 L 185 219 L 186 216 L 189 221 L 192 233 L 191 224 L 186 212 L 188 210 L 189 211 L 191 210 L 193 212 L 190 209 Z M 190 203 L 191 202 L 192 203 L 191 204 Z M 207 194 L 208 193 L 209 194 L 208 195 Z M 106 179 L 107 178 L 108 179 L 107 180 Z M 183 169 L 184 168 L 185 170 L 184 171 Z M 127 167 L 128 169 L 122 178 L 104 199 L 86 225 L 79 239 L 71 250 L 71 252 L 63 268 L 58 288 L 57 310 L 61 328 L 68 340 L 66 341 L 56 331 L 62 340 L 67 344 L 65 345 L 59 341 L 50 332 L 44 324 L 37 309 L 33 289 L 33 277 L 37 257 L 47 236 L 72 205 L 90 188 L 105 179 L 107 180 L 80 201 Z M 127 167 L 128 166 L 129 167 L 128 168 Z M 186 164 L 198 183 L 208 193 L 207 194 L 202 191 L 190 178 L 185 167 Z M 184 163 L 185 162 L 186 164 L 185 165 Z M 181 130 L 182 131 L 181 134 L 180 133 Z M 179 124 L 180 123 L 181 125 L 180 126 Z M 190 105 L 191 107 L 181 124 L 180 121 L 184 113 Z M 190 105 L 191 104 L 192 105 L 191 106 Z M 193 101 L 194 103 L 192 105 L 191 103 Z M 193 101 L 194 100 L 195 101 L 194 102 Z M 189 101 L 190 100 L 191 101 L 190 102 Z M 194 99 L 195 98 L 196 100 L 195 101 Z M 195 98 L 196 97 L 197 98 L 196 99 Z M 194 72 L 197 70 L 199 71 L 197 73 Z M 177 63 L 180 61 L 186 60 L 189 65 L 189 70 L 188 71 L 187 69 L 184 69 L 182 67 L 181 68 Z M 174 58 L 175 57 L 176 58 L 175 59 Z M 171 56 L 174 64 L 180 71 L 168 90 L 163 101 L 157 123 L 154 142 L 152 144 L 152 148 L 150 152 L 150 158 L 145 175 L 138 190 L 123 213 L 138 192 L 147 174 L 152 159 L 152 154 L 156 139 L 156 133 L 158 128 L 158 123 L 162 107 L 169 90 L 179 74 L 183 70 L 185 70 L 188 73 L 195 76 L 183 93 L 175 109 L 170 128 L 170 134 L 169 135 L 169 144 L 170 144 L 171 128 L 174 116 L 180 100 L 191 82 L 198 75 L 199 77 L 187 101 L 178 123 L 178 126 L 179 125 L 180 128 L 176 141 L 176 151 L 177 151 L 177 143 L 180 133 L 181 134 L 181 145 L 182 146 L 182 156 L 183 157 L 182 158 L 184 165 L 183 169 L 178 156 L 179 162 L 182 169 L 186 173 L 189 179 L 200 191 L 207 196 L 222 203 L 235 211 L 256 232 L 263 244 L 271 265 L 273 274 L 273 290 L 269 304 L 264 314 L 259 321 L 251 329 L 236 338 L 219 343 L 213 343 L 212 342 L 219 340 L 237 330 L 252 315 L 262 295 L 265 280 L 265 271 L 264 271 L 264 283 L 262 292 L 260 295 L 259 300 L 250 316 L 238 328 L 229 334 L 213 341 L 208 342 L 204 346 L 202 345 L 198 346 L 197 345 L 202 337 L 211 334 L 208 334 L 204 336 L 202 334 L 215 326 L 222 320 L 205 331 L 204 326 L 226 309 L 228 309 L 233 305 L 240 296 L 245 287 L 248 275 L 248 261 L 243 245 L 235 232 L 225 222 L 203 208 L 183 187 L 182 182 L 177 175 L 176 170 L 173 166 L 170 148 L 170 154 L 171 155 L 170 156 L 176 179 L 183 192 L 183 194 L 188 200 L 189 203 L 183 209 L 183 216 L 181 218 L 179 218 L 176 224 L 176 230 L 174 231 L 170 227 L 165 215 L 162 201 L 162 191 L 160 183 L 161 151 L 160 169 L 159 170 L 160 218 L 161 219 L 160 266 L 162 236 L 163 235 L 162 214 L 161 213 L 162 208 L 169 229 L 182 242 L 198 270 L 203 286 L 203 291 L 205 297 L 205 313 L 202 323 L 203 325 L 197 340 L 185 355 L 175 361 L 165 364 L 157 364 L 154 362 L 169 356 L 179 346 L 188 327 L 191 312 L 191 292 L 190 291 L 190 283 L 186 265 L 184 263 L 188 276 L 189 288 L 190 289 L 190 314 L 185 333 L 180 343 L 172 352 L 170 353 L 169 352 L 172 346 L 163 357 L 161 357 L 157 360 L 146 361 L 144 359 L 149 354 L 154 345 L 160 324 L 160 315 L 161 314 L 160 309 L 161 308 L 160 307 L 160 287 L 159 286 L 159 278 L 158 278 L 159 314 L 158 315 L 158 323 L 156 333 L 149 351 L 144 357 L 134 363 L 128 363 L 127 364 L 125 363 L 125 335 L 126 334 L 127 319 L 132 294 L 131 294 L 127 320 L 126 321 L 125 335 L 124 336 L 124 352 L 123 353 L 124 363 L 123 364 L 122 363 L 117 363 L 105 358 L 96 350 L 90 341 L 87 334 L 83 317 L 83 296 L 87 277 L 95 256 L 109 232 L 100 245 L 90 265 L 84 283 L 81 299 L 81 318 L 83 328 L 85 332 L 85 335 L 91 347 L 97 354 L 96 355 L 89 354 L 77 347 L 70 341 L 65 334 L 60 322 L 59 312 L 58 311 L 59 289 L 68 261 L 78 243 L 88 230 L 117 198 L 104 210 L 87 229 L 86 228 L 87 225 L 101 205 L 122 180 L 135 157 L 142 138 L 146 123 L 150 85 L 156 76 L 160 73 Z" fill="#111111" fill-rule="evenodd"/>
</svg>